<mxfile host="app.diagrams.net" modified="2020-06-05T00:39:06.946Z" agent="5.0 (Windows NT 10.0; Win64; x64) AppleWebKit/537.36 (KHTML, like Gecko) Chrome/83.0.4103.61 Safari/537.36" etag="wRCpaG1MqYA5JSA5GexA" version="13.1.14" type="github" pages="2">
  <diagram id="KIsci91XANOsWsoRQ6g7" name="Page-1">
    <mxGraphModel dx="1422" dy="762" grid="1" gridSize="10" guides="1" tooltips="1" connect="1" arrows="1" fold="1" page="1" pageScale="1" pageWidth="1169" pageHeight="827" math="0" shadow="0">
      <root>
        <mxCell id="0" />
        <mxCell id="1" parent="0" />
        <mxCell id="hh326OTWAgIN8ziztQj_-1" value="" style="shape=cylinder;whiteSpace=wrap;html=1;boundedLbl=1;backgroundOutline=1;" vertex="1" parent="1">
          <mxGeometry x="220" y="110" width="70" height="110" as="geometry" />
        </mxCell>
      </root>
    </mxGraphModel>
  </diagram>
  <diagram id="qTvgowZhfEsXNXIQOGsZ" name="Page-2">
    <mxGraphModel dx="1422" dy="762" grid="1" gridSize="10" guides="1" tooltips="1" connect="1" arrows="1" fold="1" page="1" pageScale="1" pageWidth="1169" pageHeight="827" math="0" shadow="0">
      <root>
        <mxCell id="5RJXUTnLGYvX_TpGxiCa-0" />
        <mxCell id="5RJXUTnLGYvX_TpGxiCa-1" parent="5RJXUTnLGYvX_TpGxiCa-0" />
      </root>
    </mxGraphModel>
  </diagram>
</mxfile>
